<svg version="1.1" xmlns="http://www.w3.org/2000/svg" xmlns:xlink="http://www.w3.org/1999/xlink" width="48px" height="48px" viewBox="0,0,256,256"><g fill="#66c9ff" fill-rule="nonzero" stroke="none" stroke-width="1" stroke-linecap="butt" stroke-linejoin="miter" stroke-miterlimit="10" stroke-dasharray="" stroke-dashoffset="0" font-family="none" font-weight="none" font-size="none" text-anchor="none" style="mix-blend-mode: normal"><g transform="scale(5.33333,5.33333)"><path d="M24,3.99805c-11.02771,0 -20,8.97229 -20,20c0,3.27532 0.86271,6.33681 2.26172,9.06641l-2.16797,7.76172c-0.50495,1.8034 1.27818,3.58644 3.08203,3.08203l7.76758,-2.16797c2.72738,1.39608 5.78439,2.25781 9.05664,2.25781c11.02771,0 20,-8.97229 20,-20c0,-11.02771 -8.97229,-20 -20,-20zM24,6.99805c9.40629,0 17,7.59371 17,17c0,9.40629 -7.59371,17 -17,17c-3.00158,0 -5.8094,-0.78052 -8.25781,-2.14453c-0.34512,-0.19235 -0.7522,-0.24078 -1.13281,-0.13477l-7.38672,2.06055l2.0625,-7.38281c0.10655,-0.38122 0.05811,-0.7891 -0.13477,-1.13477c-1.36674,-2.4502 -2.15039,-5.25915 -2.15039,-8.26367c0,-9.40629 7.59371,-17 17,-17zM31.47656,12.97852c-0.82766,0.01293 -1.48843,0.69381 -1.47656,1.52148v4.75391c-0.02645,0.16103 -0.02645,0.3253 0,0.48633v7.75977c-0.00765,0.54095 0.27656,1.04412 0.74381,1.31683c0.46725,0.27271 1.04514,0.27271 1.51238,0c0.46725,-0.27271 0.75146,-0.77588 0.74381,-1.31683v-6.5h1.5c0.54095,0.00765 1.04412,-0.27656 1.31683,-0.74381c0.27271,-0.46725 0.27271,-1.04514 0,-1.51238c-0.27271,-0.46725 -0.77588,-0.75146 -1.31683,-0.74381h-1.5v-3.5c0.00582,-0.40562 -0.15288,-0.7963 -0.43991,-1.08296c-0.28703,-0.28666 -0.67792,-0.44486 -1.08353,-0.43852zM20.5,13c-0.54095,-0.00765 -1.04412,0.27656 -1.31683,0.74381c-0.27271,0.46725 -0.27271,1.04514 0,1.51238c0.27271,0.46725 0.77588,0.75146 1.31683,0.74381h4.5v1c0,1.2525 -0.56462,2.35069 -1.45508,3.08594c-0.41352,0.34119 -0.61359,0.87709 -0.52482,1.4058c0.08877,0.52871 0.45288,0.96989 0.95515,1.15732c0.50228,0.18743 1.06639,0.09264 1.47982,-0.24867c1.55354,-1.28275 2.54492,-3.23689 2.54492,-5.40039v-2.5c-0.00008,-0.82839 -0.67161,-1.49992 -1.5,-1.5zM18.50586,18c-0.62277,-0.00264 -1.18241,0.37978 -1.40625,0.96094l-5,13c-0.29772,0.77341 0.08791,1.64174 0.86133,1.93945c0.77341,0.29772 1.64174,-0.08791 1.93945,-0.86133l1.16797,-3.03906h4.86328l1.16797,3.03906c0.29772,0.77341 1.16604,1.15904 1.93945,0.86133c0.77341,-0.29772 1.15904,-1.16604 0.86133,-1.93945l-5,-13c-0.22231,-0.57716 -0.77604,-0.95873 -1.39453,-0.96094zM18.5,23.67969l1.27734,3.32031h-2.55469z"></path></g></g></svg>