<svg version="1.1" xmlns="http://www.w3.org/2000/svg" xmlns:xlink="http://www.w3.org/1999/xlink" width="48px" height="48px" viewBox="0,0,256,256"><g fill="none" fill-rule="nonzero" stroke="none" stroke-width="none" stroke-linecap="none" stroke-linejoin="none" stroke-miterlimit="10" stroke-dasharray="" stroke-dashoffset="0" font-family="none" font-weight="none" font-size="none" text-anchor="none" style="mix-blend-mode: normal"><g transform="scale(5.33333,5.33333)"><path d="M28,10c-9.9,0 -18,8.1 -18,18c0,3.2 0.8,6.2 2.3,8.8l-2.2,8c-0.2,0.7 0.5,1.4 1.2,1.2l8,-2.2c2.6,1.4 5.6,2.3 8.7,2.3c9.9,0 18,-8.1 18,-18c0,-9.9 -8.1,-18.1 -18,-18.1z" fill="#63d5ff" stroke="none" stroke-width="1" stroke-linecap="butt" stroke-linejoin="miter"></path><path d="M41,31.4c1,-2.3 1.5,-4.8 1.5,-7.4c0,-10.2 -8.3,-18.5 -18.5,-18.5c-4,0 -7.8,1.3 -10.8,3.5" fill="none" stroke="#ffff00" stroke-width="3" stroke-linecap="round" stroke-linejoin="round"></path><path d="M7.1,16.5c-1,2.3 -1.6,4.8 -1.6,7.5c0,3.3 0.9,6.3 2.3,9l-2.3,8.2c-0.2,0.8 0.5,1.5 1.3,1.3l8.2,-2.3c2.7,1.5 5.7,2.3 9,2.3c4.7,0 9.1,-1.8 12.3,-4.7" fill="none" stroke="#ffff00" stroke-width="3" stroke-linecap="round" stroke-linejoin="round"></path><path d="M13.5,32.5l5,-13l5,13" fill="none" stroke="#ffff00" stroke-width="3" stroke-linecap="round" stroke-linejoin="round"></path><path d="M15.5,28.5h6" fill="none" stroke="#ffff00" stroke-width="3" stroke-linecap="round" stroke-linejoin="round"></path><path d="M31.5,14.5v13" fill="none" stroke="#ffff00" stroke-width="3" stroke-linecap="round" stroke-linejoin="round"></path><path d="M34.5,19.5h-3" fill="none" stroke="#ffff00" stroke-width="3" stroke-linecap="round" stroke-linejoin="round"></path><path d="M20.5,14.5h6v2.5c0,1.7 -0.8,3.2 -2,4.2" fill="none" stroke="#ffff00" stroke-width="3" stroke-linecap="round" stroke-linejoin="round"></path></g></g></svg>